# xmcd CD database file
#
# Track frame offsets:
#	150
#	8497
#	24956
#	33996
#	41337
#	50947
#	63824
#	67858
#	78627
#	84405
#	91015
#	99727
#	105244
#	113321
#	117971
#	122737
#	130429
#	138231
#	143657
#	155918
#	162548
#	166418
#	174240
#
# Disc length: 2446 seconds
#
# Revision: 0
# Processed by: cddbd v1.5.2PL0 Copyright (c) Steve Scherf et al.
# Submitted via: CDex 1.51
#
DISCID=1d098c17
DTITLE=Baby Loves Jazz - Baby Loves Jazz
DYEAR=2007
DGENRE=Jazz
TTITLE0=Baby Loves Jazz Comp II - Scat McDonald
TTITLE1=I Use Potty
TTITLE2=When Jazz Is Purple
TTITLE3=Bass scat
TTITLE4=SkipToMyLou
TTITLE5=ClassInSession
TTITLE6=Five Busy Bees
TTITLE7=HeyDiddleDiddle
TTITLE8=Meet Philly Joe
TTITLE9=BangOnTheDrumAllDay
TTITLE10=Trumpet scat
TTITLE11=Ears scat
TTITLE12=Brown Jazz Brown
TTITLE13=I Like Blue Lemurs
TTITLE14=Stop and Honk To 10
TTITLE15=Rise And Shine
TTITLE16=Sax scat
TTITLE17=HokeyPokey
TTITLE18=HickeryDickeryDoc
TTITLE19=When Jazz Is Yellow
TTITLE20=TEN Tatooed Tigers
TTITLE21=NurseryJam
TTITLE22=ItsyBitsySpider
EXTD=YEAR: 2007
EXTT0=
EXTT1=
EXTT2=
EXTT3=
EXTT4=
EXTT5=
EXTT6=
EXTT7=
EXTT8=
EXTT9=
EXTT10=
EXTT11=
EXTT12=
EXTT13=
EXTT14=
EXTT15=
EXTT16=
EXTT17=
EXTT18=
EXTT19=
EXTT20=
EXTT21=
EXTT22=
PLAYORDER=
